<svg width="270" height="40" viewBox="0 0 270 64" fill="none" xmlns="http://www.w3.org/2000/svg">
<path d="M233.184 40.8699C232.833 42.157 232.248 43.3271 231.546 44.3803C230.844 45.5504 229.908 46.4865 228.737 47.3056C223.94 50.933 215.281 51.284 209.664 45.9014C205.452 41.923 203.814 34.5511 206.388 28.3495C207.675 25.3071 210.132 22.2648 213.994 20.5096C218.44 18.5203 225.812 19.1054 229.791 23.4349C232.482 26.3602 233.886 30.8067 233.535 35.9553C233.535 36.4234 233.418 36.7744 233.418 36.7744H212.824C212.824 38.2956 213.526 39.5827 214.345 40.6358C215.398 42.04 217.504 43.2101 219.61 43.3271C221.249 43.4442 223.121 43.0931 224.408 42.157C225.461 41.3379 226.163 40.2848 226.631 38.9977L233.184 40.8699ZM225.812 31.5088C225.812 29.4026 224.408 27.4133 222.77 26.5943C220.664 25.5411 217.972 25.6582 216.1 26.7113C214.345 27.6474 213.058 29.4026 212.941 31.6258C215.866 31.6258 218.791 31.6258 221.717 31.6258C223.121 31.5088 224.408 31.5088 225.812 31.5088Z" fill="#fffafa"/>
<path d="M131.851 20.3926V13.8399L138.871 11.7336V20.3926H144.722V27.2964H138.871V39.3487C138.871 40.6359 139.105 41.455 139.691 41.923C140.276 42.3911 141.095 42.6251 142.265 42.6251C142.733 42.6251 143.201 42.6251 143.669 42.6251C144.137 42.6251 144.488 42.5081 144.722 42.3911V48.8268C144.371 48.9438 143.786 49.1778 143.084 49.2948C142.382 49.4119 141.446 49.5289 140.276 49.5289C137.467 49.5289 135.244 48.7098 133.606 47.1886C131.968 45.6674 131.149 43.4442 131.149 40.6359V27.2964H126V20.3926H131.851V20.3926Z" fill="#fffafa"/>
<path d="M168.476 28.1154C166.604 27.8814 163.912 27.2963 160.87 29.6366C160.168 30.2216 159.7 31.0407 159.232 32.0939C158.881 33.147 158.647 34.4341 158.647 35.9553V49.0607H150.807V20.3926H158.413C158.413 21.7967 158.413 23.0839 158.413 24.488C158.764 24.02 159.115 23.4349 159.466 22.9668C160.051 22.3818 160.636 21.9137 161.221 21.4457C163.093 20.2755 165.316 20.0415 167.423 20.1585C167.657 20.1585 168.008 20.1585 168.359 20.2755V28.1154H168.476Z" fill="#fffafa"/>
<path d="M192.112 20.3926H199.952V49.1778H192.346V45.6674C191.41 47.1886 190.24 48.2417 188.719 48.9438C185.209 50.5819 180.645 50.3479 177.603 48.0077C174.677 45.7844 173.741 42.157 173.741 38.6466V20.3926H181.581V37.1254C181.581 40.1678 183.336 42.6251 186.496 42.7421C188.134 42.7421 189.655 42.274 190.708 41.1039C191.878 39.9338 192.229 38.4126 192.229 36.7744C192.112 37.0084 192.112 20.3926 192.112 20.3926Z" fill="#fffafa"/>
<path d="M248.864 27.0624V49.1779H241.024V27.0624H236.226V20.3926H241.024C241.024 17.4673 240.79 14.542 242.194 11.8507C243.247 9.74445 245.002 8.10626 247.226 7.17016C248.513 6.7021 249.917 6.46808 251.555 6.46808C252.374 6.46808 253.193 6.46808 253.895 6.58509C254.597 6.7021 255.182 6.81912 255.416 7.05314V13.4889C255.182 13.3719 254.948 13.3719 254.597 13.2548C253.31 13.0208 251.789 13.1378 250.619 13.8399C249.449 14.542 248.981 15.8291 248.981 17.1163V20.2756H268.288V49.0609H260.565V27.0624H248.864Z" fill="#fffafa"/>
<path d="M269.107 10.7975C269.107 9.51039 268.522 8.22325 267.703 7.40416C266.884 6.58507 265.597 6 264.309 6C263.022 6 261.735 6.58507 260.916 7.40416C260.097 8.22325 259.512 9.51039 259.512 10.7975C259.512 12.0847 260.097 13.3718 260.916 14.1909C261.735 15.01 263.022 15.5951 264.309 15.5951C265.597 15.5951 266.884 15.01 267.703 14.1909C268.522 13.3718 269.107 12.2017 269.107 10.7975Z" fill="#fffafa"/>
<path d="M76.6596 0C73.0851 0 69.8085 1.925 68.0461 5.025L45.6759 44H29V64H51.438C54.987 64 58.2662 62.0922 60.0392 58.9958L82.3688 20H99V0H76.6596Z" fill="#1A5AFF"/>
<path d="M17.229 64L0 54.025L28.087 5.025C29.8471 1.925 33.1193 0 36.6891 0H59V20H42.3908L17.229 64Z" fill="#1A5AFF"/>
<path d="M89 52C94.5228 52 99 47.5228 99 42C99 36.4772 94.5228 32 89 32C83.4772 32 79 36.4772 79 42C79 47.5228 83.4772 52 89 52Z" fill="#1A5AFF"/>
<path d="M2 0V20C13.05 20 22 11.05 22 0H2Z" fill="#1A5AFF"/>
</svg>
